{"title":"Lucia.De.B.2014.AVI.BRRip.360p.DivX.NLaudio.{Th3Sp3cialist}","uid":10937972,"size":1028458295,"categoryP":"video","categoryS":"hd___movies","magnet":"?xt=urn:btih:7195d4829e092ca19f90c8e9a2524e7ac8706f27&amp;dn=Lucia.De.B.2014.AVI.BRRip.360p.DivX.NLaudio.%7BTh3Sp3cialist%7D&amp;tr=udp%3A%2F%2Ftracker.openbittorrent.com%3A80&amp;tr=udp%3A%2F%2Fopen.demonii.com%3A1337&amp;tr=udp%3A%2F%2Ftracker.coppersurfer.tk%3A6969&amp;tr=udp%3A%2F%2Fexodus.desync.com%3A6969","seeders":1,"leechers":0,"uploader":"HOLLANDmovies","files":-1,"time":1409457224,"description":"LUCIA DE B. (DivX 360p) \n\nINFO\n\nLucia de B. (2014)\n97 min - Drama | Thriller\n\nA psychological thriller, based on one of the most controversial court cases in the Netherlands. Lucia, a nurse, is sentenced to life imprisonment for allegedly having killed at least seven babies and elderly people.\n\nDirector: Paula van der Oest\nWriters: Moniek Kramer, Tijs van Marle\nStars: Barry Atsma, Amanda Ooms, Marwan Kenzari \n\nGENERAL:\n\nComplete name : Lucia.De.B.2014.AVI.BRRip.360p.DivX.NLaudio.{Th3Sp3cialist}.Movie.avi\nFormat : AVI\nFormat/Info : Audio Video Interleave\nFile size : 971 MiB\nDuration : 1h 36mn\nOverall bit rate : 1 403 Kbps\n\nVideo\nID : 0\nSource : Lucia.De.B.2014.AVI.BRRip.1080p.DivX.NLaudio.{Th3Sp3cialist}\nFormat : xvid\nCodec ID : xvid\nDuration : 1h 36mn\nBit rate : 1 070 Kbps\nWidth : 640 pixels\nHeight : 360 pixels\nDisplay aspect ratio : 16:9\nFrame rate : 24.000 fps\nBits/(Pixel*Frame) : 0.194\nStream size : 741 MiB (76%)\n\nAudio\nID : 1\nFormat : MPEG Audio\nFormat version : Version 1\nFormat profile : Layer 3\nMode : Joint stereo\nMode extension : MS Stereo\nCodec ID : 55\nCodec ID/Hint : MP3\nDuration : 1h 36mn\nBit rate mode : Constant\nBit rate : 320 Kbps\nChannel(s) : 2 channels\nSampling rate : 48.0 KHz\nCompression mode : Lossy\nStream size : 222 MiB (23%)\nAlignment : Aligned on interleaves\nInterleave, duration : 24 ms (0.58 video frame)\n &lt;a href=&quot;\nhttp://bayimg.com/AaAOKAagB&quot; rel=&quot;nofollow&quot; target=&quot;_NEW&quot;&gt;\nhttp://bayimg.com/AaAOKAagB&lt;/a&gt; &lt;a href=&quot;\nhttp://bayimg.com/AAaomAaGb&quot; rel=&quot;nofollow&quot; target=&quot;_NEW&quot;&gt;\nhttp://bayimg.com/AAaomAaGb&lt;/a&gt; &lt;a href=&quot;\nhttp://bayimg.com/AAaoNaagb&quot; rel=&quot;nofollow&quot; target=&quot;_NEW&quot;&gt;\nhttp://bayimg.com/AAaoNaagb&lt;/a&gt;","torrent":{"xt":"urn:btih:7195d4829e092ca19f90c8e9a2524e7ac8706f27","amp;dn":"Lucia.De.B.2014.AVI.BRRip.360p.DivX.NLaudio.%7BTh3Sp3cialist%7D","amp;tr":["udp%3A%2F%2Ftracker.openbittorrent.com%3A80","udp%3A%2F%2Fopen.demonii.com%3A1337","udp%3A%2F%2Ftracker.coppersurfer.tk%3A6969","udp%3A%2F%2Fexodus.desync.com%3A6969"],"infoHash":"7195d4829e092ca19f90c8e9a2524e7ac8706f27","infoHashBuffer":{"type":"Buffer","data":[113,149,212,130,158,9,44,161,159,144,200,233,162,82,78,122,200,112,111,39]},"announce":[],"urlList":[]}}